<?xml version="1.0" encoding="UTF-8"?>
<svg xmlns="http://www.w3.org/2000/svg" version="1.1" viewBox="0 0 1000 1000">
  <!-- Generator: Adobe Illustrator 29.6.1, SVG Export Plug-In . SVG Version: 2.1.1 Build 9)  -->
  <defs>
    <style>
      .st0 {
        fill: #fff;
      }

      .st1 {
        fill: none;
        stroke: #fff;
        stroke-miterlimit: 10;
        stroke-width: 2px;
      }

      .st2 {
        display: none;
      }
    </style>
  </defs>
  <g id="Layer_2" class="st2">
    <rect y="0" width="1000" height="1000"/>
  </g>
  <g id="Layer_1">
    <g>
      <path class="st1" d="M480.4,466.22c4.63-2.01,9.76-3.13,15.15-3.13,20.04,0,36.42,15.44,37.49,34.88"/>
      <path class="st1" d="M522.15,526.08c-6.8,6.7-16.2,10.85-26.59,10.85-20.74,0-37.55-16.53-37.55-36.92,0-4.51.82-8.83,2.33-12.82"/>
      <path class="st1" d="M466.21,579.27c-32.91-11.79-56.41-42.82-56.41-79.26,0-46.57,38.4-84.33,85.76-84.33,4.45,0,8.82.33,13.09.98"/>
      <path class="st1" d="M573.56,464.9c4.99,10.69,7.76,22.58,7.76,35.11,0,43.34-33.25,79.05-76.04,83.79"/>
      <path class="st1" d="M391.2,415.83c24.76-29.64,62.31-48.54,104.36-48.54,69.37,0,126.52,51.45,134.12,117.66"/>
      <path class="st1" d="M615.15,561.6c-22.57,42.28-67.66,71.12-119.6,71.12-74.11,0-134.27-58.72-134.98-131.43"/>
      <path class="st1" d="M330.09,603.83c-19.49-29.98-30.79-65.6-30.79-103.82,0-99.13,76.01-180.8,173.86-191.73"/>
      <path class="st1" d="M608.26,342.01c50.53,34.91,83.56,92.67,83.56,158,0,52.97-21.71,100.96-56.85,135.83"/>
      <path class="st1" d="M584.05,672.29c-26.59,13.23-56.65,20.68-88.49,20.68-41.05,0-79.16-12.39-110.67-33.59"/>
      <path class="st1" d="M746.06,498.69v1.32c0,136.03-112.15,246.31-250.5,246.31-13.02,0-25.81-.98-38.3-2.86"/>
      <path class="st1" d="M390.81,723.81c-86.03-39-145.75-124.54-145.75-223.8,0-4.24.11-8.45.32-12.63"/>
      <path class="st1" d="M293.57,354.3c45.6-61.01,119.09-100.6,201.99-100.6,117.97,0,216.9,80.19,243.48,188.15"/>
      <path class="st1" d="M350.42,243.23c42.97-23.53,92.46-36.94,145.14-36.94,164.98,0,298.72,131.5,298.72,293.72,0,15.4-1.21,30.52-3.53,45.29"/>
      <path class="st1" d="M751.04,652.29c-52.39,84.79-147.21,141.43-255.48,141.43-164.98,0-298.72-131.5-298.72-293.72,0-55.98,15.93-108.3,43.57-152.82"/>
      <path class="st1" d="M199.87,681.97c-33.64-52.74-53.09-115.12-53.09-181.96,0-19.57,1.67-38.76,4.87-57.44"/>
      <path class="st1" d="M217.4,293.09c63.68-82.64,164.58-136.02,278.16-136.02,46.44,0,90.76,8.92,131.28,25.12"/>
      <path class="st1" d="M708.22,228.17c82.78,62.7,136.12,161.15,136.12,271.84,0,130.14-73.73,243.35-182.36,301.45"/>
      <path class="st1" d="M581.61,832.42c-27.53,6.87-56.36,10.52-86.05,10.52-78.86,0-151.61-25.74-210.04-69.13"/>
      <path class="st1" d="M217.92,200.55c73.25-65.69,170.69-105.75,277.64-105.75s203.75,39.8,276.92,105.11"/>
      <path class="st1" d="M856.93,305.05c32.35,57.84,50.74,124.29,50.74,194.96,0,38.17-5.37,75.11-15.4,110.12"/>
      <path class="st1" d="M778.02,795.08c-73.77,68.3-173.14,110.15-282.46,110.15-227.61,0-412.12-181.42-412.12-405.22,0-80.92,24.12-156.3,65.68-219.56"/>
      <path class="st1" d="M611.3,962.87c-37.09,8.94-75.85,13.67-115.74,13.67-231.54,0-425.16-159.65-473.2-373.1"/>
      <path class="st1" d="M21.53,400.31C68.14,184.99,262.67,23.47,495.56,23.47h1.5"/>
      <path class="st1" d="M681.75,59.91c175.26,71.76,298.46,241.79,298.46,440.1,0,173.77-94.59,325.82-235.91,409.07"/>
    </g>
    <path class="st0" d="M857.06,253.03c1.93,0,1.93-3,0-3s-1.93,3,0,3h0Z"/>
    <path class="st0" d="M930.1,149.73c1.93,0,1.93-3,0-3s-1.93,3,0,3h0Z"/>
    <path class="st0" d="M820.54,69.38c1.93,0,1.93-3,0-3s-1.93,3,0,3h0Z"/>
    <path class="st0" d="M876.88,151.81c1.93,0,1.93-3,0-3s-1.93,3,0,3h0Z"/>
    <path class="st0" d="M935.32,416.86c1.93,0,1.93-3,0-3s-1.93,3,0,3h0Z"/>
    <path class="st0" d="M962.45,312.51c1.93,0,1.93-3,0-3s-1.93,3,0,3h0Z"/>
    <path class="st0" d="M739.14,138.25c1.93,0,1.93-3,0-3s-1.93,3,0,3h0Z"/>
    <path class="st0" d="M696.36,205.03c1.93,0,1.93-3,0-3s-1.93,3,0,3h0Z"/>
    <path class="st0" d="M641.06,100.68c1.93,0,1.93-3,0-3s-1.93,3,0,3h0Z"/>
    <path class="st0" d="M584.71,151.81c1.93,0,1.93-3,0-3s-1.93,3,0,3h0Z"/>
    <path class="st0" d="M542.97,71.46c1.93,0,1.93-3,0-3s-1.93,3,0,3h0Z"/>
    <path class="st0" d="M349.93,143.46c1.93,0,1.93-3,0-3s-1.93,3,0,3h0Z"/>
    <path class="st0" d="M313.41,89.2c1.93,0,1.93-3,0-3s-1.93,3,0,3h0Z"/>
    <path class="st0" d="M427.14,126.77c1.93,0,1.93-3,0-3s-1.93,3,0,3h0Z"/>
    <path class="st0" d="M497.06,67.29c1.93,0,1.93-3,0-3s-1.93,3,0,3h0Z"/>
    <path class="st0" d="M503.32,130.94c1.93,0,1.93-3,0-3s-1.93,3,0,3h0Z"/>
    <path class="st0" d="M509.58,184.16c1.93,0,1.93-3,0-3s-1.93,3,0,3h0Z"/>
    <path class="st0" d="M407.32,242.59c1.93,0,1.93-3,0-3s-1.93,3,0,3h0Z"/>
    <path class="st0" d="M433.41,195.64c1.93,0,1.93-3,0-3s-1.93,3,0,3h0Z"/>
    <path class="st0" d="M484.54,226.94c1.93,0,1.93-3,0-3s-1.93,3,0,3h0Z"/>
    <path class="st0" d="M660.88,219.64c1.93,0,1.93-3,0-3s-1.93,3,0,3h0Z"/>
    <path class="st0" d="M624.36,254.07c1.93,0,1.93-3,0-3s-1.93,3,0,3h0Z"/>
    <path class="st0" d="M593.06,197.73c1.93,0,1.93-3,0-3s-1.93,3,0,3h0Z"/>
    <path class="st0" d="M551.32,253.03c1.93,0,1.93-3,0-3s-1.93,3,0,3h0Z"/>
    <path class="st0" d="M764.19,327.12c1.93,0,1.93-3,0-3s-1.93,3,0,3h0Z"/>
    <path class="st0" d="M723.49,333.38c1.93,0,1.93-3,0-3s-1.93,3,0,3h0Z"/>
    <path class="st0" d="M724.54,270.77c1.93,0,1.93-3,0-3s-1.93,3,0,3h0Z"/>
    <path class="st0" d="M665.06,280.16c1.93,0,1.93-3,0-3s-1.93,3,0,3h0Z"/>
    <path class="st0" d="M769.41,247.81c1.93,0,1.93-3,0-3s-1.93,3,0,3h0Z"/>
    <path class="st0" d="M811.14,311.46c1.93,0,1.93-3,0-3s-1.93,3,0,3h0Z"/>
    <path class="st0" d="M871.67,377.2c1.93,0,1.93-3,0-3s-1.93,3,0,3h0Z"/>
    <path class="st0" d="M910.28,340.68c1.93,0,1.93-3,0-3s-1.93,3,0,3h0Z"/>
    <path class="st0" d="M935.32,490.03h-1.04c-.21,0-.4.04-.58.13-.19.06-.35.16-.48.31-.15.14-.25.3-.31.48-.09.18-.14.37-.13.58l.05.4c.07.25.2.47.39.66l.3.23c.23.14.49.2.76.2h1.04c.21,0,.4-.04.58-.13.19-.06.35-.16.48-.31.15-.14.25-.3.31-.48.09-.18.14-.37.13-.58l-.05-.4c-.07-.25-.2-.47-.39-.66l-.3-.23c-.23-.14-.49-.2-.76-.2h0Z"/>
    <path class="st0" d="M886.28,485.73c1.93,0,1.93-3,0-3s-1.93,3,0,3h0Z"/>
    <path class="st0" d="M921.75,607.81c1.93,0,1.93-3,0-3s-1.93,3,0,3h0Z"/>
    <path class="st0" d="M865.41,641.2c1.93,0,1.93-3,0-3s-1.93,3,0,3h0Z"/>
    <path class="st0" d="M868.08,567.7v3.13c0,.38.17.79.44,1.06s.69.46,1.06.44c.81-.04,1.5-.66,1.5-1.5v-3.13c0-.38-.17-.79-.44-1.06s-.69-.46-1.06-.44c-.81.04-1.5.66-1.5,1.5h0Z"/>
    <path class="st0" d="M875.84,710.07c1.93,0,1.93-3,0-3s-1.93,3,0,3h0Z"/>
    <path class="st0" d="M835.14,682.94c1.93,0,1.93-3,0-3s-1.93,3,0,3h0Z"/>
    <path class="st0" d="M842.45,734.07c1.93,0,1.93-3,0-3s-1.93,3,0,3h0Z"/>
    <path class="st0" d="M869.58,766.41c1.93,0,1.93-3,0-3s-1.93,3,0,3h0Z"/>
    <path class="st0" d="M778.8,742.41c1.93,0,1.93-3,0-3s-1.93,3,0,3h0Z"/>
    <path class="st0" d="M776.71,824.85c1.93,0,1.93-3,0-3s-1.93,3,0,3h0Z"/>
    <path class="st0" d="M837.23,784.16c1.93,0,1.93-3,0-3s-1.93,3,0,3h0Z"/>
    <path class="st0" d="M805.93,758.07c1.93,0,1.93-3,0-3s-1.93,3,0,3h0Z"/>
    <path class="st0" d="M742.28,782.07c1.93,0,1.93-3,0-3s-1.93,3,0,3h0Z"/>
    <path class="st0" d="M748.54,859.29c1.93,0,1.93-3,0-3s-1.93,3,0,3h0Z"/>
    <path class="st0" d="M708.88,884.33c1.93,0,1.93-3,0-3s-1.93,3,0,3h0Z"/>
    <path class="st0" d="M699.49,834.25c1.93,0,1.93-3,0-3s-1.93,3,0,3h0Z"/>
    <path class="st0" d="M634.8,844.67c1.93,0,1.93-3,0-3s-1.93,3,0,3h0Z"/>
    <path class="st0" d="M628.54,872.85c1.93,0,1.93-3,0-3s-1.93,3,0,3h0Z"/>
    <path class="st0" d="M516.88,853.03c1.93,0,1.93-3,0-3s-1.93,3,0,3h0Z"/>
    <path class="st0" d="M555.49,879.12c1.93,0,1.93-3,0-3s-1.93,3,0,3h0Z"/>
    <path class="st0" d="M675.49,902.07c1.93,0,1.93-3,0-3s-1.93,3,0,3h0Z"/>
    <path class="st0" d="M353.06,907.29c1.93,0,1.93-3,0-3s-1.93,3,0,3h0Z"/>
    <path class="st0" d="M391.67,882.25c1.93,0,1.93-3,0-3s-1.93,3,0,3h0Z"/>
    <path class="st0" d="M475.14,889.54c1.93,0,1.93-3,0-3s-1.93,3,0,3h0Z"/>
    <path class="st0" d="M436.54,862.41c1.93,0,1.93-3,0-3s-1.93,3,0,3h0Z"/>
    <path class="st0" d="M353.06,856.16c1.93,0,1.93-3,0-3s-1.93,3,0,3h0Z"/>
    <path class="st0" d="M275.84,887.46c1.93,0,1.93-3,0-3s-1.93,3,0,3h0Z"/>
    <path class="st0" d="M239.32,873.9c1.93,0,1.93-3,0-3s-1.93,3,0,3h0Z"/>
    <path class="st0" d="M224.71,842.59c1.93,0,1.93-3,0-3s-1.93,3,0,3h0Z"/>
    <path class="st0" d="M171.49,877.03c1.93,0,1.93-3,0-3s-1.93,3,0,3h0Z"/>
    <path class="st0" d="M177.75,845.72c1.93,0,1.93-3,0-3s-1.93,3,0,3h0Z"/>
    <path class="st0" d="M126.62,832.16c1.93,0,1.93-3,0-3s-1.93,3,0,3h0Z"/>
    <path class="st0" d="M158.97,795.64c1.93,0,1.93-3,0-3s-1.93,3,0,3h0Z"/>
    <path class="st0" d="M117.23,754.94c1.93,0,1.93-3,0-3s-1.93,3,0,3h0Z"/>
    <path class="st0" d="M71.32,782.07c1.93,0,1.93-3,0-3s-1.93,3,0,3h0Z"/>
    <path class="st0" d="M105.75,710.07c1.93,0,1.93-3,0-3s-1.93,3,0,3h0Z"/>
    <path class="st0" d="M53.58,719.46c1.93,0,1.93-3,0-3s-1.93,3,0,3h0Z"/>
    <path class="st0" d="M74.45,631.81c1.93,0,1.93-3,0-3s-1.93,3,0,3h0Z"/>
    <path class="st0" d="M186.1,736.16c1.93,0,1.93-3,0-3s-1.93,3,0,3h0Z"/>
    <path class="st0" d="M248.71,763.29c1.93,0,1.93-3,0-3s-1.93,3,0,3h0Z"/>
    <path class="st0" d="M296.71,814.41c1.93,0,1.93-3,0-3s-1.93,3,0,3h0Z"/>
    <path class="st0" d="M313.41,770.59c1.93,0,1.93-3,0-3s-1.93,3,0,3h0Z"/>
    <path class="st0" d="M538.8,771.64c1.93,0,1.93-3,0-3s-1.93,3,0,3h0Z"/>
    <path class="st0" d="M440.71,812.33c1.93,0,1.93-3,0-3s-1.93,3,0,3h0Z"/>
    <path class="st0" d="M435.49,768.51c1.93,0,1.93-3,0-3s-1.93,3,0,3h0Z"/>
    <path class="st0" d="M623.32,791.46c1.93,0,1.93-3,0-3s-1.93,3,0,3h0Z"/>
    <path class="st0" d="M626.45,747.64c1.93,0,1.93-3,0-3s-1.93,3,0,3h0Z"/>
    <path class="st0" d="M706.8,754.94c1.93,0,1.93-3,0-3s-1.93,3,0,3h0Z"/>
    <path class="st0" d="M717.23,669.38c1.93,0,1.93-3,0-3s-1.93,3,0,3h0Z"/>
    <path class="st0" d="M760.01,654.77c1.93,0,1.93-3,0-3s-1.93,3,0,3h0Z"/>
    <path class="st0" d="M768.36,597.38c1.93,0,1.93-3,0-3s-1.93,3,0,3h0Z"/>
    <path class="st0" d="M802.8,587.98c1.93,0,1.93-3,0-3s-1.93,3,0,3h0Z"/>
    <path class="st0" d="M806.97,490.94c1.93,0,1.93-3,0-3s-1.93,3,0,3h0Z"/>
    <path class="st0" d="M770.45,499.29c1.93,0,1.93-3,0-3s-1.93,3,0,3h0Z"/>
    <path class="st0" d="M810.1,437.73c1.93,0,1.93-3,0-3s-1.93,3,0,3h0Z"/>
    <path class="st0" d="M761.06,401.2c1.93,0,1.93-3,0-3s-1.93,3,0,3h0Z"/>
    <path class="st0" d="M785.06,375.12c1.93,0,1.93-3,0-3s-1.93,3,0,3h0Z"/>
    <path class="st0" d="M727.67,548.33c1.93,0,1.93-3,0-3s-1.93,3,0,3h0Z"/>
    <path class="st0" d="M719.32,470.07c1.93,0,1.93-3,0-3s-1.93,3,0,3h0Z"/>
    <path class="st0" d="M705.75,407.46c1.93,0,1.93-3,0-3s-1.93,3,0,3h0Z"/>
    <path class="st0" d="M693.23,435.64c1.93,0,1.93-3,0-3s-1.93,3,0,3h0Z"/>
    <path class="st0" d="M677.58,353.2c1.93,0,1.93-3,0-3s-1.93,3,0,3h0Z"/>
    <path class="st0" d="M613.93,318.77c1.93,0,1.93-3,0-3s-1.93,3,0,3h0Z"/>
    <path class="st0" d="M634.8,388.68c1.93,0,1.93-3,0-3s-1.93,3,0,3h0Z"/>
    <path class="st0" d="M654.62,349.03c1.93,0,1.93-3,0-3s-1.93,3,0,3h0Z"/>
    <path class="st0" d="M527.32,332.33c1.93,0,1.93-3,0-3s-1.93,3,0,3h0Z"/>
    <path class="st0" d="M538.8,292.68c1.93,0,1.93-3,0-3s-1.93,3,0,3h0Z"/>
    <path class="st0" d="M571.14,322.94c1.93,0,1.93-3,0-3s-1.93,3,0,3h0Z"/>
    <path class="st0" d="M541.93,363.64c1.93,0,1.93-3,0-3s-1.93,3,0,3h0Z"/>
    <path class="st0" d="M499.14,302.07c1.93,0,1.93-3,0-3s-1.93,3,0,3h0Z"/>
    <path class="st0" d="M587.84,374.07c1.93,0,1.93-3,0-3s-1.93,3,0,3h0Z"/>
    <path class="st0" d="M638.97,416.86c1.93,0,1.93-3,0-3s-1.93,3,0,3h0Z"/>
    <path class="st0" d="M668.19,486.77c1.93,0,1.93-3,0-3s-1.93,3,0,3h0Z"/>
    <path class="st0" d="M650.45,471.12c1.93,0,1.93-3,0-3s-1.93,3,0,3h0Z"/>
    <path class="st0" d="M658.8,542.07c1.93,0,1.93-3,0-3s-1.93,3,0,3h0Z"/>
    <path class="st0" d="M620.19,522.25c1.93,0,1.93-3,0-3s-1.93,3,0,3h0Z"/>
    <path class="st0" d="M636.88,554.59c1.93,0,1.93-3,0-3s-1.93,3,0,3h0Z"/>
    <path class="st0" d="M627.49,615.12c1.93,0,1.93-3,0-3s-1.93,3,0,3h0Z"/>
    <path class="st0" d="M612.88,587.98c1.93,0,1.93-3,0-3s-1.93,3,0,3h0Z"/>
    <path class="st0" d="M636.88,589.03c1.93,0,1.93-3,0-3s-1.93,3,0,3h0Z"/>
    <path class="st0" d="M609.75,606.77c1.93,0,1.93-3,0-3s-1.93,3,0,3h0Z"/>
    <path class="st0" d="M619.73,633.44v1.04c0,.21.04.4.13.58.06.19.16.35.31.48.14.15.3.25.48.31.18.09.37.14.58.13l.4-.05c.25-.07.47-.2.66-.39l.23-.3c.14-.23.2-.49.2-.76v-1.04c0-.21-.04-.4-.13-.58-.06-.19-.16-.35-.31-.48-.14-.15-.3-.25-.48-.31-.18-.09-.37-.14-.58-.13l-.4.05c-.25.07-.47.2-.66.39l-.23.3c-.14.23-.2.49-.2.76h0Z"/>
    <path class="st0" d="M611.84,663.12c1.93,0,1.93-3,0-3s-1.93,3,0,3h0Z"/>
    <path class="st0" d="M627.49,689.2c1.93,0,1.93-3,0-3s-1.93,3,0,3h0Z"/>
    <path class="st0" d="M657.75,659.98c1.93,0,1.93-3,0-3s-1.93,3,0,3h0Z"/>
    <path class="st0" d="M683.84,632.85c1.93,0,1.93-3,0-3s-1.93,3,0,3h0Z"/>
    <path class="st0" d="M683.84,601.54c1.93,0,1.93-3,0-3s-1.93,3,0,3h0Z"/>
    <path class="st0" d="M707.84,581.72c1.93,0,1.93-3,0-3s-1.93,3,0,3h0Z"/>
    <path class="st0" d="M718.28,523.29c1.93,0,1.93-3,0-3s-1.93,3,0,3h0Z"/>
    <path class="st0" d="M593.06,642.25c1.93,0,1.93-3,0-3s-1.93,3,0,3h0Z"/>
    <path class="st0" d="M597.23,698.72h-1.04c-.21,0-.4.04-.58.13-.19.06-.35.16-.48.31-.15.14-.25.3-.31.48-.09.18-.14.37-.13.58l.05.4c.07.25.2.47.39.66l.3.23c.23.14.49.2.76.2h1.04c.21,0,.4-.04.58-.13.19-.06.35-.16.48-.31.15-.14.25-.3.31-.48.09-.18.14-.37.13-.58l-.05-.4c-.07-.25-.2-.47-.39-.66l-.3-.23c-.23-.14-.49-.2-.76-.2h0Z"/>
    <path class="st0" d="M546.1,663.12c1.93,0,1.93-3,0-3s-1.93,3,0,3h0Z"/>
    <path class="st0" d="M556.54,700.67c1.93,0,1.93-3,0-3s-1.93,3,0,3h0Z"/>
    <path class="st0" d="M578.45,659.98c1.93,0,1.93-3,0-3s-1.93,3,0,3h0Z"/>
    <path class="st0" d="M516.88,674.59c1.93,0,1.93-3,0-3s-1.93,3,0,3h0Z"/>
    <path class="st0" d="M517.93,719.46c1.93,0,1.93-3,0-3s-1.93,3,0,3h0Z"/>
    <path class="st0" d="M488.71,659.98c1.93,0,1.93-3,0-3s-1.93,3,0,3h0Z"/>
    <path class="st0" d="M452.19,702.77c1.93,0,1.93-3,0-3s-1.93,3,0,3h0Z"/>
    <path class="st0" d="M374.97,700.67c1.93,0,1.93-3,0-3s-1.93,3,0,3h0Z"/>
    <path class="st0" d="M436.54,659.98c1.93,0,1.93-3,0-3s-1.93,3,0,3h0Z"/>
    <path class="st0" d="M400.01,630.77c1.93,0,1.93-3,0-3s-1.93,3,0,3h0Z"/>
    <path class="st0" d="M352.01,642.25c1.93,0,1.93-3,0-3s-1.93,3,0,3h0Z"/>
    <path class="st0" d="M359.32,620.33c1.93,0,1.93-3,0-3s-1.93,3,0,3h0Z"/>
    <path class="st0" d="M309.23,631.81c1.93,0,1.93-3,0-3s-1.93,3,0,3h0Z"/>
    <path class="st0" d="M302.97,593.2c1.93,0,1.93-3,0-3s-1.93,3,0,3h0Z"/>
    <path class="st0" d="M285.23,582.77c1.93,0,1.93-3,0-3s-1.93,3,0,3h0Z"/>
    <path class="st0" d="M289.41,547.29c1.93,0,1.93-3,0-3s-1.93,3,0,3h0Z"/>
    <path class="st0" d="M281.06,530.59c1.93,0,1.93-3,0-3s-1.93,3,0,3h0Z"/>
    <path class="st0" d="M284.19,479.46c1.93,0,1.93-3,0-3s-1.93,3,0,3h0Z"/>
    <path class="st0" d="M259.14,449.2c1.93,0,1.93-3,0-3s-1.93,3,0,3h0Z"/>
    <path class="st0" d="M256.01,413.73c1.93,0,1.93-3,0-3s-1.93,3,0,3h0Z"/>
    <path class="st0" d="M283.14,383.46c1.93,0,1.93-3,0-3s-1.93,3,0,3h0Z"/>
    <path class="st0" d="M268.54,351.12c1.93,0,1.93-3,0-3s-1.93,3,0,3h0Z"/>
    <path class="st0" d="M294.62,305.2c1.93,0,1.93-3,0-3s-1.93,3,0,3h0Z"/>
    <path class="st0" d="M304.01,282.25c1.93,0,1.93-3,0-3s-1.93,3,0,3h0Z"/>
    <path class="st0" d="M334.28,277.03c1.93,0,1.93-3,0-3s-1.93,3,0,3h0Z"/>
    <path class="st0" d="M312.36,234.25c1.93,0,1.93-3,0-3s-1.93,3,0,3h0Z"/>
    <path class="st0" d="M258.1,292.68c1.93,0,1.93-3,0-3s-1.93,3,0,3h0Z"/>
    <path class="st0" d="M281.06,263.46c1.93,0,1.93-3,0-3s-1.93,3,0,3h0Z"/>
    <path class="st0" d="M247.67,218.59c1.93,0,1.93-3,0-3s-1.93,3,0,3h0Z"/>
    <path class="st0" d="M295.67,193.55c1.93,0,1.93-3,0-3s-1.93,3,0,3h0Z"/>
    <path class="st0" d="M313.41,179.99c1.93,0,1.93-3,0-3s-1.93,3,0,3h0Z"/>
    <path class="st0" d="M250.8,141.38c1.93,0,1.93-3,0-3s-1.93,3,0,3h0Z"/>
    <path class="st0" d="M277.93,123.64c1.93,0,1.93-3,0-3s-1.93,3,0,3h0Z"/>
    <path class="st0" d="M258.1,117.38c1.93,0,1.93-3,0-3s-1.93,3,0,3h0Z"/>
    <path class="st0" d="M213.23,163.29c1.93,0,1.93-3,0-3s-1.93,3,0,3h0Z"/>
    <path class="st0" d="M193.41,217.55c1.93,0,1.93-3,0-3s-1.93,3,0,3h0Z"/>
    <path class="st0" d="M194.45,258.25c1.93,0,1.93-3,0-3s-1.93,3,0,3h0Z"/>
    <path class="st0" d="M188.19,328.16c1.93,0,1.93-3,0-3s-1.93,3,0,3h0Z"/>
    <path class="st0" d="M225.75,319.81c1.93,0,1.93-3,0-3s-1.93,3,0,3h0Z"/>
    <path class="st0" d="M191.32,311.46c1.93,0,1.93-3,0-3s-1.93,3,0,3h0Z"/>
    <path class="st0" d="M215.32,356.33c1.93,0,1.93-3,0-3s-1.93,3,0,3h0Z"/>
    <path class="st0" d="M191.32,382.42c1.93,0,1.93-3,0-3s-1.93,3,0,3h0Z"/>
    <path class="st0" d="M160.01,416.86c1.93,0,1.93-3,0-3s-1.93,3,0,3h0Z"/>
    <path class="st0" d="M133.93,416.86c1.93,0,1.93-3,0-3s-1.93,3,0,3h0Z"/>
    <path class="st0" d="M162.1,376.16c1.93,0,1.93-3,0-3s-1.93,3,0,3h0Z"/>
    <path class="st0" d="M152.71,362.59c1.93,0,1.93-3,0-3s-1.93,3,0,3h0Z"/>
    <path class="st0" d="M179.84,287.46c1.93,0,1.93-3,0-3s-1.93,3,0,3h0Z"/>
    <path class="st0" d="M162.1,229.03c1.93,0,1.93-3,0-3s-1.93,3,0,3h0Z"/>
    <path class="st0" d="M161.06,202.94c1.93,0,1.93-3,0-3s-1.93,3,0,3h0Z"/>
    <path class="st0" d="M197.58,171.64c1.93,0,1.93-3,0-3s-1.93,3,0,3h0Z"/>
    <path class="st0" d="M120.36,279.12c1.93,0,1.93-3,0-3s-1.93,3,0,3h0Z"/>
    <path class="st0" d="M136.01,238.42c1.93,0,1.93-3,0-3s-1.93,3,0,3h0Z"/>
    <path class="st0" d="M160.01,264.51c1.93,0,1.93-3,0-3s-1.93,3,0,3h0Z"/>
    <path class="st0" d="M107.84,260.33c1.93,0,1.93-3,0-3s-1.93,3,0,3h0Z"/>
    <path class="st0" d="M88.01,322.94c1.93,0,1.93-3,0-3s-1.93,3,0,3h0Z"/>
    <path class="st0" d="M97.41,306.25c1.93,0,1.93-3,0-3s-1.93,3,0,3h0Z"/>
    <path class="st0" d="M102.62,328.16c1.93,0,1.93-3,0-3s-1.93,3,0,3h0Z"/>
    <path class="st0" d="M80.71,367.81c1.93,0,1.93-3,0-3s-1.93,3,0,3h0Z"/>
    <path class="st0" d="M65.06,355.29c1.93,0,1.93-3,0-3s-1.93,3,0,3h0Z"/>
    <path class="st0" d="M64.01,417.9c1.93,0,1.93-3,0-3s-1.93,3,0,3h0Z"/>
    <path class="st0" d="M56.71,453.38c1.93,0,1.93-3,0-3s-1.93,3,0,3h0Z"/>
    <path class="st0" d="M38.97,461.73c1.93,0,1.93-3,0-3s-1.93,3,0,3h0Z"/>
    <path class="st0" d="M45.23,532.67c1.93,0,1.93-3,0-3s-1.93,3,0,3h0Z"/>
    <path class="st0" d="M65.06,548.33c1.93,0,1.93-3,0-3s-1.93,3,0,3h0Z"/>
    <path class="st0" d="M72.36,579.64c1.93,0,1.93-3,0-3s-1.93,3,0,3h0Z"/>
    <path class="st0" d="M47.32,623.46c1.93,0,1.93-3,0-3s-1.93,3,0,3h0Z"/>
    <path class="st0" d="M76.54,664.16c1.93,0,1.93-3,0-3s-1.93,3,0,3h0Z"/>
    <path class="st0" d="M94.28,682.94c1.93,0,1.93-3,0-3s-1.93,3,0,3h0Z"/>
    <path class="st0" d="M37.93,561.9c1.93,0,1.93-3,0-3s-1.93,3,0,3h0Z"/>
    <path class="st0" d="M53.58,513.9c1.93,0,1.93-3,0-3s-1.93,3,0,3h0Z"/>
    <path class="st0" d="M21.23,507.64c1.93,0,1.93-3,0-3s-1.93,3,0,3h0Z"/>
    <path class="st0" d="M129.75,467.99c1.93,0,1.93-3,0-3s-1.93,3,0,3h0Z"/>
    <path class="st0" d="M107.84,507.64c1.93,0,1.93-3,0-3s-1.93,3,0,3h0Z"/>
    <path class="st0" d="M138.1,553.54c1.93,0,1.93-3,0-3s-1.93,3,0,3h0Z"/>
    <path class="st0" d="M127.67,590.07c1.93,0,1.93-3,0-3s-1.93,3,0,3h0Z"/>
    <path class="st0" d="M122.45,551.46c1.93,0,1.93-3,0-3s-1.93,3,0,3h0Z"/>
    <path class="st0" d="M129.75,503.46c1.93,0,1.93-3,0-3s-1.93,3,0,3h0Z"/>
    <path class="st0" d="M149.58,608.85c1.93,0,1.93-3,0-3s-1.93,3,0,3h0Z"/>
    <path class="st0" d="M147.49,646.41c1.93,0,1.93-3,0-3s-1.93,3,0,3h0Z"/>
    <path class="st0" d="M131.84,663.12c1.93,0,1.93-3,0-3s-1.93,3,0,3h0Z"/>
    <path class="st0" d="M163.14,687.12c1.93,0,1.93-3,0-3s-1.93,3,0,3h0Z"/>
    <path class="st0" d="M180.88,692.33c1.93,0,1.93-3,0-3s-1.93,3,0,3h0Z"/>
    <path class="st0" d="M221.58,719.46c1.93,0,1.93-3,0-3s-1.93,3,0,3h0Z"/>
    <path class="st0" d="M244.54,738.25c1.93,0,1.93-3,0-3s-1.93,3,0,3h0Z"/>
    <path class="st0" d="M265.41,731.98c1.93,0,1.93-3,0-3s-1.93,3,0,3h0Z"/>
    <path class="st0" d="M228.88,676.67c1.93,0,1.93-3,0-3s-1.93,3,0,3h0Z"/>
    <path class="st0" d="M196.54,638.07c1.93,0,1.93-3,0-3s-1.93,3,0,3h0Z"/>
    <path class="st0" d="M202.8,616.16c1.93,0,1.93-3,0-3s-1.93,3,0,3h0Z"/>
    <path class="st0" d="M181.93,581.72c1.93,0,1.93-3,0-3s-1.93,3,0,3h0Z"/>
    <path class="st0" d="M180.88,533.72c1.93,0,1.93-3,0-3s-1.93,3,0,3h0Z"/>
    <path class="st0" d="M182.97,486.77c1.93,0,1.93-3,0-3s-1.93,3,0,3h0Z"/>
    <path class="st0" d="M173.58,459.64c1.93,0,1.93-3,0-3s-1.93,3,0,3h0Z"/>
    <path class="st0" d="M203.84,401.2c1.93,0,1.93-3,0-3s-1.93,3,0,3h0Z"/>
    <path class="st0" d="M226.8,508.68c1.93,0,1.93-3,0-3s-1.93,3,0,3h0Z"/>
    <path class="st0" d="M242.45,473.2c1.93,0,1.93-3,0-3s-1.93,3,0,3h0Z"/>
    <path class="st0" d="M214.28,471.12c1.93,0,1.93-3,0-3s-1.93,3,0,3h0Z"/>
    <path class="st0" d="M229.93,566.07c1.93,0,1.93-3,0-3s-1.93,3,0,3h0Z"/>
    <path class="st0" d="M251.84,603.64c1.93,0,1.93-3,0-3s-1.93,3,0,3h0Z"/>
    <path class="st0" d="M259.14,637.03c1.93,0,1.93-3,0-3s-1.93,3,0,3h0Z"/>
    <path class="st0" d="M271.67,656.85c1.93,0,1.93-3,0-3s-1.93,3,0,3h0Z"/>
    <path class="st0" d="M311.32,699.64c1.93,0,1.93-3,0-3s-1.93,3,0,3h0Z"/>
    <path class="st0" d="M339.49,719.46c1.93,0,1.93-3,0-3s-1.93,3,0,3h0Z"/>
    <path class="st0" d="M370.8,730.94c1.93,0,1.93-3,0-3s-1.93,3,0,3h0Z"/>
    <path class="st0" d="M425.06,730.94c1.93,0,1.93-3,0-3s-1.93,3,0,3h0Z"/>
    <path class="st0" d="M410.45,761.2c1.93,0,1.93-3,0-3s-1.93,3,0,3h0Z"/>
    <path class="st0" d="M565.93,751.81c1.93,0,1.93-3,0-3s-1.93,3,0,3h0Z"/>
    <path class="st0" d="M511.67,757.03c1.93,0,1.93-3,0-3s-1.93,3,0,3h0Z"/>
    <path class="st0" d="M493.93,770.59c1.93,0,1.93-3,0-3s-1.93,3,0,3h0Z"/>
    <path class="st0" d="M668.19,716.33c1.93,0,1.93-3,0-3s-1.93,3,0,3h0Z"/>
    <path class="st0" d="M701.58,696.51c1.93,0,1.93-3,0-3s-1.93,3,0,3h0Z"/>
    <path class="st0" d="M796.54,634.94c1.93,0,1.93-3,0-3s-1.93,3,0,3h0Z"/>
    <path class="st0" d="M769.41,562.94c1.93,0,1.93-3,0-3s-1.93,3,0,3h0Z"/>
    <path class="st0" d="M812.19,547.29c1.93,0,1.93-3,0-3s-1.93,3,0,3h0Z"/>
    <path class="st0" d="M816.82,461.27v-1.04c0-.21-.04-.4-.13-.58-.06-.19-.16-.35-.31-.48-.14-.15-.3-.25-.48-.31-.18-.09-.37-.14-.58-.13l-.4.05c-.25.07-.47.2-.66.39l-.23.3c-.14.23-.2.49-.2.76v1.04c0,.21.04.4.13.58.06.19.16.35.31.48.14.15.3.25.48.31.18.09.37.14.58.13l.4-.05c.25-.07.47-.2.66-.39l.23-.3c.14-.23.2-.49.2-.76h0Z"/>
    <path class="st0" d="M761.06,464.86c1.93,0,1.93-3,0-3s-1.93,3,0,3h0Z"/>
    <path class="st0" d="M799.08,408.05v-1.04c0-.21-.04-.4-.13-.58-.06-.19-.16-.35-.31-.48-.14-.15-.3-.25-.48-.31-.18-.09-.37-.14-.58-.13l-.4.05c-.25.07-.47.2-.66.39l-.23.3c-.14.23-.2.49-.2.76v1.04c0,.21.04.4.13.58.06.19.16.35.31.48.14.15.3.25.48.31.18.09.37.14.58.13l.4-.05c.25-.07.47-.2.66-.39l.23-.3c.14-.23.2-.49.2-.76h0Z"/>
    <path class="st0" d="M777.75,342.77c1.93,0,1.93-3,0-3s-1.93,3,0,3h0Z"/>
    <path class="st0" d="M744.36,369.9c1.93,0,1.93-3,0-3s-1.93,3,0,3h0Z"/>
    <path class="st0" d="M746.45,289.55c1.93,0,1.93-3,0-3s-1.93,3,0,3h0Z"/>
    <path class="st0" d="M684.88,305.2c1.93,0,1.93-3,0-3s-1.93,3,0,3h0Z"/>
    <path class="st0" d="M598.28,268.68c1.93,0,1.93-3,0-3s-1.93,3,0,3h0Z"/>
    <path class="st0" d="M575.32,238.42c1.93,0,1.93-3,0-3s-1.93,3,0,3h0Z"/>
    <path class="st0" d="M488.71,238.42c1.93,0,1.93-3,0-3s-1.93,3,0,3h0Z"/>
    <path class="st0" d="M421.93,241.55c1.93,0,1.93-3,0-3s-1.93,3,0,3h0Z"/>
    <path class="st0" d="M368.71,262.42c1.93,0,1.93-3,0-3s-1.93,3,0,3h0Z"/>
    <path class="st0" d="M374.97,220.68c1.93,0,1.93-3,0-3s-1.93,3,0,3h0Z"/>
    <path class="st0" d="M412.54,205.03c1.93,0,1.93-3,0-3s-1.93,3,0,3h0Z"/>
    <path class="st0" d="M401.06,161.2c1.93,0,1.93-3,0-3s-1.93,3,0,3h0Z"/>
    <path class="st0" d="M378.1,139.29c1.93,0,1.93-3,0-3s-1.93,3,0,3h0Z"/>
    <path class="st0" d="M398.97,128.86c1.93,0,1.93-3,0-3s-1.93,3,0,3h0Z"/>
    <path class="st0" d="M396.88,85.03c1.93,0,1.93-3,0-3s-1.93,3,0,3h0Z"/>
    <path class="st0" d="M373.93,76.68c1.93,0,1.93-3,0-3s-1.93,3,0,3h0Z"/>
    <path class="st0" d="M421.93,48.51c1.93,0,1.93-3,0-3s-1.93,3,0,3h0Z"/>
    <path class="st0" d="M466.8,52.68c1.93,0,1.93-3,0-3s-1.93,3,0,3h0Z"/>
    <path class="st0" d="M451.14,71.46c1.93,0,1.93-3,0-3s-1.93,3,0,3h0Z"/>
    <path class="st0" d="M546.1,56.86c1.93,0,1.93-3,0-3s-1.93,3,0,3h0Z"/>
    <path class="st0" d="M598.28,44.33c1.93,0,1.93-3,0-3s-1.93,3,0,3h0Z"/>
    <path class="st0" d="M607.67,73.55c1.93,0,1.93-3,0-3s-1.93,3,0,3h0Z"/>
    <path class="st0" d="M581.58,79.81c1.93,0,1.93-3,0-3s-1.93,3,0,3h0Z"/>
    <path class="st0" d="M654.62,85.03c1.93,0,1.93-3,0-3s-1.93,3,0,3h0Z"/>
    <path class="st0" d="M684.88,103.81c1.93,0,1.93-3,0-3s-1.93,3,0,3h0Z"/>
    <path class="st0" d="M727.67,115.29c1.93,0,1.93-3,0-3s-1.93,3,0,3h0Z"/>
    <path class="st0" d="M705.75,134.07c1.93,0,1.93-3,0-3s-1.93,3,0,3h0Z"/>
    <path class="st0" d="M797.58,158.07c1.93,0,1.93-3,0-3s-1.93,3,0,3h0Z"/>
    <path class="st0" d="M773.58,181.03c1.93,0,1.93-3,0-3s-1.93,3,0,3h0Z"/>
    <path class="st0" d="M763.73,148.23v1.04c0,.21.04.4.13.58.06.19.16.35.31.48.14.15.3.25.48.31.18.09.37.14.58.13l.4-.05c.25-.07.47-.2.66-.39l.23-.3c.14-.23.2-.49.2-.76v-1.04c0-.21-.04-.4-.13-.58-.06-.19-.16-.35-.31-.48-.14-.15-.3-.25-.48-.31-.18-.09-.37-.14-.58-.13l-.4.05c-.25.07-.47.2-.66.39l-.23.3c-.14.23-.2.49-.2.76h0Z"/>
    <path class="st0" d="M824.71,196.68c1.93,0,1.93-3,0-3s-1.93,3,0,3h0Z"/>
    <path class="st0" d="M862.28,211.29c1.93,0,1.93-3,0-3s-1.93,3,0,3h0Z"/>
    <path class="st0" d="M869.24,236.69l-3.14,1.02c-.37.12-.7.35-.9.69-.19.32-.27.8-.15,1.16s.34.71.69.9.77.28,1.16.15l3.14-1.02c.37-.12.7-.35.9-.69.19-.32.27-.8.15-1.16s-.34-.71-.69-.9-.77-.28-1.16-.15h0Z"/>
    <path class="st0" d="M795.49,241.55c1.93,0,1.93-3,0-3s-1.93,3,0,3h0Z"/>
    <path class="st0" d="M800.71,215.46c1.93,0,1.93-3,0-3s-1.93,3,0,3h0Z"/>
    <path class="st0" d="M834.1,229.03c1.93,0,1.93-3,0-3s-1.93,3,0,3h0Z"/>
    <path class="st0" d="M811.14,264.51c1.93,0,1.93-3,0-3s-1.93,3,0,3h0Z"/>
    <path class="st0" d="M839.32,284.33c1.93,0,1.93-3,0-3s-1.93,3,0,3h0Z"/>
    <path class="st0" d="M871.67,282.25c1.93,0,1.93-3,0-3s-1.93,3,0,3h0Z"/>
    <path class="st0" d="M889.41,294.77c1.93,0,1.93-3,0-3s-1.93,3,0,3h0Z"/>
    <path class="st0" d="M859.14,353.2c1.93,0,1.93-3,0-3s-1.93,3,0,3h0Z"/>
    <path class="st0" d="M861.23,399.12c1.93,0,1.93-3,0-3s-1.93,3,0,3h0Z"/>
    <path class="st0" d="M874.8,432.51c1.93,0,1.93-3,0-3s-1.93,3,0,3h0Z"/>
    <path class="st0" d="M877.93,453.38c1.93,0,1.93-3,0-3s-1.93,3,0,3h0Z"/>
    <path class="st0" d="M853.93,471.12c1.93,0,1.93-3,0-3s-1.93,3,0,3h0Z"/>
    <path class="st0" d="M870.62,524.33c1.93,0,1.93-3,0-3s-1.93,3,0,3h0Z"/>
    <path class="st0" d="M888.36,555.64c1.93,0,1.93-3,0-3s-1.93,3,0,3h0Z"/>
    <path class="st0" d="M854.97,604.67c1.93,0,1.93-3,0-3s-1.93,3,0,3h0Z"/>
    <path class="st0" d="M873.75,614.07c1.93,0,1.93-3,0-3s-1.93,3,0,3h0Z"/>
    <path class="st0" d="M908.19,651.64c1.93,0,1.93-3,0-3s-1.93,3,0,3h0Z"/>
    <path class="st0" d="M891.49,670.41c1.93,0,1.93-3,0-3s-1.93,3,0,3h0Z"/>
    <path class="st0" d="M914.45,680.85c1.93,0,1.93-3,0-3s-1.93,3,0,3h0Z"/>
    <path class="st0" d="M944.71,585.9c1.93,0,1.93-3,0-3s-1.93,3,0,3h0Z"/>
    <path class="st0" d="M924.88,554.59c1.93,0,1.93-3,0-3s-1.93,3,0,3h0Z"/>
    <path class="st0" d="M955.14,523.29c1.93,0,1.93-3,0-3s-1.93,3,0,3h0Z"/>
    <path class="st0" d="M935.32,509.73c1.93,0,1.93-3,0-3s-1.93,3,0,3h0Z"/>
    <path class="st0" d="M956.19,474.25c1.93,0,1.93-3,0-3s-1.93,3,0,3h0Z"/>
    <path class="st0" d="M925.93,454.42c1.93,0,1.93-3,0-3s-1.93,3,0,3h0Z"/>
    <path class="st0" d="M954.1,423.12c1.93,0,1.93-3,0-3s-1.93,3,0,3h0Z"/>
    <path class="st0" d="M955.14,366.77c1.93,0,1.93-3,0-3s-1.93,3,0,3h0Z"/>
    <path class="st0" d="M930.1,385.55c1.93,0,1.93-3,0-3s-1.93,3,0,3h0Z"/>
    <path class="st0" d="M361.41,470.07c1.93,0,1.93-3,0-3s-1.93,3,0,3h0Z"/>
    <path class="st0" d="M333.23,471.12c1.93,0,1.93-3,0-3s-1.93,3,0,3h0Z"/>
    <path class="st0" d="M355.14,449.2c1.93,0,1.93-3,0-3s-1.93,3,0,3h0Z"/>
    <path class="st0" d="M332.19,432.51c1.93,0,1.93-3,0-3s-1.93,3,0,3h0Z"/>
    <path class="st0" d="M363.49,403.29c1.93,0,1.93-3,0-3s-1.93,3,0,3h0Z"/>
    <path class="st0" d="M368.71,381.38c1.93,0,1.93-3,0-3s-1.93,3,0,3h0Z"/>
    <path class="st0" d="M402.1,373.03c1.93,0,1.93-3,0-3s-1.93,3,0,3h0Z"/>
    <path class="st0" d="M394.8,382.42c1.93,0,1.93-3,0-3s-1.93,3,0,3h0Z"/>
    <path class="st0" d="M443.84,350.07c1.93,0,1.93-3,0-3s-1.93,3,0,3h0Z"/>
    <path class="st0" d="M498.1,339.64c1.93,0,1.93-3,0-3s-1.93,3,0,3h0Z"/>
    <path class="st0" d="M506.45,347.99c1.93,0,1.93-3,0-3s-1.93,3,0,3h0Z"/>
    <path class="st0" d="M456.36,347.99c1.93,0,1.93-3,0-3s-1.93,3,0,3h0Z"/>
    <path class="st0" d="M464.71,294.77c1.93,0,1.93-3,0-3s-1.93,3,0,3h0Z"/>
    <path class="st0" d="M465.75,274.94c1.93,0,1.93-3,0-3s-1.93,3,0,3h0Z"/>
    <path class="st0" d="M422.97,288.51c1.93,0,1.93-3,0-3s-1.93,3,0,3h0Z"/>
    <path class="st0" d="M408.36,310.42c1.93,0,1.93-3,0-3s-1.93,3,0,3h0Z"/>
    <path class="st0" d="M365.58,328.16c1.93,0,1.93-3,0-3s-1.93,3,0,3h0Z"/>
    <path class="st0" d="M360.36,314.59c1.93,0,1.93-3,0-3s-1.93,3,0,3h0Z"/>
    <path class="st0" d="M333.23,338.59c1.93,0,1.93-3,0-3s-1.93,3,0,3h0Z"/>
    <path class="st0" d="M338.45,364.68c1.93,0,1.93-3,0-3s-1.93,3,0,3h0Z"/>
    <path class="st0" d="M307.14,391.81c1.93,0,1.93-3,0-3s-1.93,3,0,3h0Z"/>
    <path class="st0" d="M295.67,411.64c1.93,0,1.93-3,0-3s-1.93,3,0,3h0Z"/>
    <path class="st0" d="M289.41,434.59c1.93,0,1.93-3,0-3s-1.93,3,0,3h0Z"/>
    <path class="st0" d="M404.19,433.55c1.93,0,1.93-3,0-3s-1.93,3,0,3h0Z"/>
    <path class="st0" d="M432.36,424.16c1.93,0,1.93-3,0-3s-1.93,3,0,3h0Z"/>
    <path class="st0" d="M446.97,401.2c1.93,0,1.93-3,0-3s-1.93,3,0,3h0Z"/>
    <path class="st0" d="M408.36,459.64c1.93,0,1.93-3,0-3s-1.93,3,0,3h0Z"/>
    <path class="st0" d="M382.28,490.94c1.93,0,1.93-3,0-3s-1.93,3,0,3h0Z"/>
    <path class="st0" d="M404.19,515.98c1.93,0,1.93-3,0-3s-1.93,3,0,3h0Z"/>
    <path class="st0" d="M392.69,526.98l-1.04,1.04c-.15.14-.25.3-.31.48-.09.18-.14.37-.13.58,0,.21.04.4.13.58.06.19.16.35.31.48l.3.23c.23.14.49.2.76.2l.4-.05c.25-.07.47-.2.66-.39l1.04-1.04c.15-.14.25-.3.31-.48.09-.18.14-.37.13-.58,0-.21-.04-.4-.13-.58-.06-.19-.16-.35-.31-.48l-.3-.23c-.23-.14-.49-.2-.76-.2l-.4.05c-.25.07-.47.2-.66.39h0Z"/>
    <path class="st0" d="M392.71,568.16c1.93,0,1.93-3,0-3s-1.93,3,0,3h0Z"/>
    <path class="st0" d="M424.01,575.46c1.93,0,1.93-3,0-3s-1.93,3,0,3h0Z"/>
    <path class="st0" d="M442.8,597.38c1.93,0,1.93-3,0-3s-1.93,3,0,3h0Z"/>
    <path class="st0" d="M337.41,542.07c1.93,0,1.93-3,0-3s-1.93,3,0,3h0Z"/>
    <path class="st0" d="M320.71,509.73c1.93,0,1.93-3,0-3s-1.93,3,0,3h0Z"/>
    <path class="st0" d="M341.58,497.2c1.93,0,1.93-3,0-3s-1.93,3,0,3h0Z"/>
    <path class="st0" d="M348.88,519.12c1.93,0,1.93-3,0-3s-1.93,3,0,3h0Z"/>
    <path class="st0" d="M366.62,567.12c1.93,0,1.93-3,0-3s-1.93,3,0,3h0Z"/>
    <path class="st0" d="M346.8,580.67c1.93,0,1.93-3,0-3s-1.93,3,0,3h0Z"/>
    <path class="st0" d="M369.75,600.51c1.93,0,1.93-3,0-3s-1.93,3,0,3h0Z"/>
    <path class="st0" d="M492.88,602.59c1.93,0,1.93-3,0-3s-1.93,3,0,3h0Z"/>
    <path class="st0" d="M478.28,615.12c1.93,0,1.93-3,0-3s-1.93,3,0,3h0Z"/>
    <path class="st0" d="M533.58,610.94c1.93,0,1.93-3,0-3s-1.93,3,0,3h0Z"/>
    <path class="st0" d="M544.01,591.12c1.93,0,1.93-3,0-3s-1.93,3,0,3h0Z"/>
    <path class="st0" d="M578.45,589.03c1.93,0,1.93-3,0-3s-1.93,3,0,3h0Z"/>
    <path class="st0" d="M588.88,570.25c1.93,0,1.93-3,0-3s-1.93,3,0,3h0Z"/>
    <path class="st0" d="M577.41,547.29c1.93,0,1.93-3,0-3s-1.93,3,0,3h0Z"/>
    <path class="st0" d="M595.14,536.85c1.93,0,1.93-3,0-3s-1.93,3,0,3h0Z"/>
    <path class="st0" d="M610.8,472.16c1.93,0,1.93-3,0-3s-1.93,3,0,3h0Z"/>
    <path class="st0" d="M588.88,457.55c1.93,0,1.93-3,0-3s-1.93,3,0,3h0Z"/>
    <path class="st0" d="M593.06,434.59c1.93,0,1.93-3,0-3s-1.93,3,0,3h0Z"/>
    <path class="st0" d="M571.14,427.29c1.93,0,1.93-3,0-3s-1.93,3,0,3h0Z"/>
    <path class="st0" d="M540.88,421.03c1.93,0,1.93-3,0-3s-1.93,3,0,3h0Z"/>
    <path class="st0" d="M536.71,407.46c1.93,0,1.93-3,0-3s-1.93,3,0,3h0Z"/>
    <path class="st0" d="M498.1,407.46c1.93,0,1.93-3,0-3s-1.93,3,0,3h0Z"/>
    <path class="st0" d="M478.28,395.99c1.93,0,1.93-3,0-3s-1.93,3,0,3h0Z"/>
    <path class="st0" d="M498.1,391.81c1.93,0,1.93-3,0-3s-1.93,3,0,3h0Z"/>
    <path class="st0" d="M536.71,449.2c1.93,0,1.93-3,0-3s-1.93,3,0,3h0Z"/>
    <path class="st0" d="M554.45,467.99c1.93,0,1.93-3,0-3s-1.93,3,0,3h0Z"/>
    <path class="st0" d="M559.67,500.33c1.93,0,1.93-3,0-3s-1.93,3,0,3h0Z"/>
    <path class="st0" d="M541.93,503.46c1.93,0,1.93-3,0-3s-1.93,3,0,3h0Z"/>
    <path class="st0" d="M554.45,529.54c1.93,0,1.93-3,0-3s-1.93,3,0,3h0Z"/>
    <path class="st0" d="M532.54,558.77c1.93,0,1.93-3,0-3s-1.93,3,0,3h0Z"/>
    <path class="st0" d="M511.67,547.29c1.93,0,1.93-3,0-3s-1.93,3,0,3h0Z"/>
    <path class="st0" d="M480.36,569.2c1.93,0,1.93-3,0-3s-1.93,3,0,3h0Z"/>
    <path class="st0" d="M441.75,555.64c1.93,0,1.93-3,0-3s-1.93,3,0,3h0Z"/>
    <path class="st0" d="M466.81,537.42l-1.04-1.04c-.14-.15-.3-.25-.48-.31-.18-.09-.37-.14-.58-.13-.21,0-.4.04-.58.13-.19.06-.35.16-.48.31l-.23.3c-.14.23-.2.49-.2.76l.05.4c.07.25.2.47.39.66l1.04,1.04c.14.15.3.25.48.31.18.09.37.14.58.13.21,0,.4-.04.58-.13.19-.06.35-.16.48-.31l.23-.3c.14-.23.2-.49.2-.76l-.05-.4c-.07-.25-.2-.47-.39-.66h0Z"/>
    <path class="st0" d="M443.84,519.12c1.93,0,1.93-3,0-3s-1.93,3,0,3h0Z"/>
    <path class="st0" d="M449.06,481.55c1.93,0,1.93-3,0-3s-1.93,3,0,3h0Z"/>
    <path class="st0" d="M440.71,473.2c1.93,0,1.93-3,0-3s-1.93,3,0,3h0Z"/>
    <path class="st0" d="M468.88,449.2c1.93,0,1.93-3,0-3s-1.93,3,0,3h0Z"/>
    <path class="st0" d="M498.1,430.42c1.93,0,1.93-3,0-3s-1.93,3,0,3h0Z"/>
    <g>
      <path class="st0" d="M485.29,503.72c-1.96,2.66-.41,6.96,2.82,7.72,3.93.92,6.98-2.84,8.86-5.75l-.82.47c.59.02,1.02.49,1.41.89.46.46.91.94,1.46,1.31,1.21.82,2.73.75,3.97.04,3.36-1.95,2.66-6.04,1.72-9.16-.35-1.17-2.19-.67-1.83.51.64,2.14,1.6,5.25-.59,6.85-1.94,1.41-3.02-.84-4.46-1.79-.79-.52-1.95-.85-2.57.04-.65.94-1.28,1.86-2.07,2.69-1.27,1.34-3.27,2.83-5.2,1.88-1.71-.84-2.14-3.24-1.06-4.71.72-.99-.93-1.94-1.64-.96h0Z"/>
      <path class="st0" d="M489,496.22c1.22,0,1.22-1.9,0-1.9s-1.22,1.9,0,1.9h0Z"/>
      <path class="st0" d="M495.62,494.23c1.22,0,1.22-1.9,0-1.9s-1.22,1.9,0,1.9h0Z"/>
    </g>
  </g>
</svg>