<?xml version="1.0" encoding="UTF-8"?>
<svg version="1.1" xmlns="http://www.w3.org/2000/svg" width="512" height="512">
<path d="M0 0 C-0.06566162 0.58700684 -0.13132324 1.17401367 -0.19897461 1.77880859 C-0.90358054 8.39006976 -1.29203588 14.98311073 -1.5625 21.625 C-1.60568359 22.62917969 -1.64886719 23.63335937 -1.69335938 24.66796875 C-1.79809859 27.11188383 -1.90027256 29.55587617 -2 32 C-2.66515625 32.29124756 -3.3303125 32.58249512 -4.015625 32.88256836 C-13.52825004 37.13588508 -21.52847738 43.44720167 -26 53 C-29.51020766 51.82993078 -30.10517937 50.85906642 -32.25 47.9375 C-41.07282671 36.3149454 -51.10598175 26.08352722 -66 23 C-77.93574727 21.79249249 -87.76508001 26.57381001 -97.125 33.59375 C-120.67478229 53.09591346 -132.66915689 86.53259328 -141 115 C-139.75992188 114.80664062 -138.51984375 114.61328125 -137.2421875 114.4140625 C-103.82245721 109.41139783 -63.56632625 105.28673475 -30 112 C-30 122.89 -30 133.78 -30 145 C-33.25875 144.835 -36.5175 144.67 -39.875 144.5 C-75.01922834 142.96338338 -109.54874084 144.56174164 -144.36572266 149.66455078 C-147 150 -147 150 -150 150 C-150.08217773 150.98444092 -150.08217773 150.98444092 -150.16601562 151.98876953 C-150.85921018 159.97882303 -151.84493275 167.91335199 -152.89453125 175.86328125 C-158.15668716 216.73800746 -157.23944527 259.5680393 -150.38256836 300.18432617 C-150.02276047 302.83248468 -149.92941183 305.33201175 -150 308 C-149.35160156 308.03738281 -148.70320312 308.07476562 -148.03515625 308.11328125 C-139.1338482 308.70982095 -130.31096558 309.76598955 -121.46313477 310.89575195 C-104.99913024 312.95358961 -88.69927223 313.23779718 -72.125 313.25 C-70.92834717 313.25167175 -69.73169434 313.25334351 -68.4987793 313.25506592 C-45.74807219 313.25696853 -23.67531889 311.85245976 -1.17382812 308.38037109 C1.91919471 308.0096842 4.88839982 307.9325859 8 308 C8.05478516 307.34950684 8.10957031 306.69901367 8.16601562 306.02880859 C8.78998863 298.87214261 9.61287137 291.75320437 10.5 284.625 C11.79098095 273.97479365 12.85912891 263.41786871 13.2421875 252.69140625 C13.28520996 251.53374756 13.32823242 250.37608887 13.37255859 249.18334961 C13.45595115 246.85490807 13.53459147 244.52629028 13.60791016 242.19750977 C13.6444873 241.11397217 13.68106445 240.03043457 13.71875 238.9140625 C13.74904297 237.9442041 13.77933594 236.9743457 13.81054688 235.97509766 C14.02335269 232.63327854 14.52643815 229.31493296 15 226 C25.89 226 36.78 226 48 226 C47.50864126 250.46966502 46.72794871 274.76833336 43 299 C94.0302012 282.20527221 94.0302012 282.20527221 131 245 C133.95519637 238.98149033 134.97187826 232.57997913 136 226 C137.75763672 225.96132813 137.75763672 225.96132813 139.55078125 225.921875 C148.80844961 225.62215922 156.41304411 224.71998089 165 221 C166.32583657 220.63799684 167.65749943 220.2942467 169 220 C170.33895264 284.41849943 148.29059096 346.57471704 103.51708984 393.42431641 C103.0164502 393.94429199 102.51581055 394.46426758 102 395 C101.44908691 395.57282715 100.89817383 396.1456543 100.33056641 396.73583984 C92.95555986 404.35798428 85.46627752 411.58027811 77 418 C76.06559082 418.71639648 76.06559082 418.71639648 75.11230469 419.44726562 C32.9154714 451.61058516 -17.64114839 468.53585645 -70.625 468.3125 C-71.54820038 468.31034485 -72.47140076 468.3081897 -73.4225769 468.30596924 C-87.4646985 468.25345149 -101.20010247 467.82442266 -115 465 C-116.50288574 464.69400879 -116.50288574 464.69400879 -118.03613281 464.38183594 C-155.42188742 456.52018506 -190.16380132 440.99937304 -220 417 C-220.57878906 416.5369043 -221.15757812 416.07380859 -221.75390625 415.59667969 C-236.577715 403.61775906 -250.54401762 390.07530667 -261.78955078 374.65478516 C-262.99447093 373.00755869 -264.22699182 371.38428859 -265.46484375 369.76171875 C-293.24822448 332.77022585 -309.87697101 285.23949793 -311 239 C-311.0306958 237.91452881 -311.0306958 237.91452881 -311.06201172 236.80712891 C-312.73881287 170.10924521 -287.83115923 108.18305502 -242.1796875 59.98828125 C-236.14864546 53.82837079 -229.76372009 48.33310727 -223 43 C-221.9531128 42.14092204 -220.90758653 41.28018348 -219.86328125 40.41796875 C-162.05075617 -6.83199641 -71.0308068 -28.1829268 0 0 Z M-144 35 C-197.84211436 57.42802557 -240.33458049 96.68442583 -263 151 C-263.69819996 152.98921121 -264.37956314 154.98517928 -265 157 C-260.59593519 155.40542481 -256.66021571 153.1556391 -252.625 150.8125 C-232.55955047 139.39464743 -211.4023338 131.66067171 -189.15356445 125.61352539 C-187.43399536 125.14354126 -187.43399536 125.14354126 -185.6796875 124.6640625 C-184.65601074 124.39029785 -183.63233398 124.1165332 -182.57763672 123.83447266 C-179.80400621 123.06539547 -179.80400621 123.06539547 -177 121 C-175.95390269 118.42774671 -175.95390269 118.42774671 -175.203125 115.34765625 C-174.88794922 114.1879834 -174.57277344 113.02831055 -174.24804688 111.83349609 C-173.91869141 110.58906738 -173.58933594 109.34463867 -173.25 108.0625 C-170.05420234 96.46375554 -166.53895034 85.14786154 -162 74 C-161.55237305 72.89253418 -161.55237305 72.89253418 -161.09570312 71.76269531 C-156.97133384 61.69592081 -152.09778159 52.29753138 -146.41699219 43.015625 C-145.9584082 42.25765625 -145.49982422 41.4996875 -145.02734375 40.71875 C-144.61218506 40.04779297 -144.19702637 39.37683594 -143.76928711 38.68554688 C-143.51542236 38.12931641 -143.26155762 37.57308594 -143 37 C-143.495 36.01 -143.495 36.01 -144 35 Z M-265 200 C-272.22455211 208.13174472 -277.89116316 218.40188932 -278.03125 229.46875 C-277.17916926 243.27245792 -268.41421114 254.27771818 -258.78125 263.5625 C-253.84790494 267.88610578 -248.54941879 271.53142158 -243 275 C-242.42072754 275.36448242 -241.84145508 275.72896484 -241.24462891 276.10449219 C-226.3360457 285.3322577 -202.94151339 299 -185 299 C-185.39712338 292.3847606 -185.80494161 285.77733061 -186.4765625 279.18359375 C-189.90929953 244.93063715 -189.65084139 210.56338792 -186.01660156 176.35009766 C-185.36509004 170.19452028 -184.82089308 164.19086979 -185 158 C-210.76762776 158 -247.4800857 182.51498592 -265 200 Z M-264 301 C-261.41574608 318.98357523 -247.88137977 338.00650147 -237 352 C-236.03126953 353.25683594 -236.03126953 353.25683594 -235.04296875 354.5390625 C-230.28659962 360.59944604 -225.26844568 366.3803246 -220 372 C-219.54028809 372.49371094 -219.08057617 372.98742187 -218.60693359 373.49609375 C-209.88796833 382.78551274 -200.36837034 390.61263007 -190 398 C-189.4220166 398.4120166 -188.8440332 398.8240332 -188.24853516 399.24853516 C-180.61116225 404.60085353 -172.4778825 409.01200703 -164.25 413.375 C-163.2914209 413.88748291 -162.3328418 414.39996582 -161.34521484 414.92797852 C-155.37175125 418.03222107 -149.52382171 420.330826 -143 422 C-144.46609615 418.006914 -146.38575332 414.52489847 -148.5625 410.875 C-161.08731227 389.32491278 -168.88835335 366.56832589 -175.24145508 342.56103516 C-175.4917749 341.71589355 -175.74209473 340.87075195 -176 340 C-176.34780518 338.66618286 -176.34780518 338.66618286 -176.70263672 337.30541992 C-177.84652089 334.7466672 -177.84652089 334.7466672 -180.73950195 333.7331543 C-182.47139771 333.2832312 -182.47139771 333.2832312 -184.23828125 332.82421875 C-184.86647263 332.6534935 -185.494664 332.48276825 -186.14189148 332.30686951 C-187.49167498 331.94121879 -188.84383843 331.58426399 -190.19799805 331.23516846 C-193.76653494 330.31089639 -197.31385004 329.31109642 -200.86328125 328.31640625 C-201.56945587 328.11988464 -202.27563049 327.92336304 -203.00320435 327.72088623 C-216.62202957 323.89753553 -229.4745933 318.40125083 -242.25 312.375 C-243.19101563 311.93172363 -244.13203125 311.48844727 -245.1015625 311.03173828 C-250.45313025 308.43933306 -255.36518623 305.57049064 -260.21386719 302.12353516 C-261.9304671 300.82251629 -261.9304671 300.82251629 -264 301 Z M114.6875 304.375 C96.23373407 316.00718151 75.10186467 324.56946553 53.9609375 329.80078125 C52.81657227 330.08928955 51.67220703 330.37779785 50.49316406 330.67504883 C48.29800998 331.21269928 46.09398525 331.71568729 43.88183594 332.1784668 C38.57756398 333.31886708 38.57756398 333.31886708 34.75512695 336.8359375 C33.93270884 339.2145749 33.44942488 341.52438646 33 344 C32.52391073 345.75408309 32.03238607 347.504033 31.52734375 349.25 C31.27315674 350.17498291 31.01896973 351.09996582 30.75708008 352.05297852 C24.60789753 374.16402484 16.50907386 399.73507717 2.33959961 418.15893555 C0.80388114 419.89005888 0.80388114 419.89005888 1 422 C28.04488451 415.7588728 53.45765745 395.89453009 73 377 C73.49306641 376.53271484 73.98613281 376.06542969 74.49414062 375.58398438 C94.90594478 356.22028313 112.59914971 330.63574249 122 304 C122 303.01 122 302.02 122 301 C118.94327234 301 117.2295826 302.70665526 114.6875 304.375 Z M-142 342 C-132.15075091 375.23339689 -118.14546852 414.24299718 -86 432 C-85.01773438 432.54333984 -85.01773438 432.54333984 -84.015625 433.09765625 C-76.88097584 436.37532627 -68.2368088 436.11061978 -60.78125 434.15625 C-53.47934028 431.37098547 -47.75676503 427.21920632 -42 422 C-41.31292969 421.39414062 -40.62585938 420.78828125 -39.91796875 420.1640625 C-18.91243749 400.52575516 -7.27776056 369.01055038 0 342 C-0.79994385 342.08564209 -1.5998877 342.17128418 -2.42407227 342.25952148 C-5.47119167 342.58429902 -8.51858206 342.90638263 -11.56616211 343.22680664 C-13.50200147 343.43111499 -15.43753002 343.63836175 -17.37304688 343.84570312 C-34.89922952 345.68348698 -52.20108857 346.23557636 -69.8125 346.25 C-71.00210327 346.25200409 -72.19170654 346.25400818 -73.4173584 346.256073 C-93.11982108 346.26418387 -112.43736839 345.26447491 -132 343 C-135.33219095 342.65469251 -138.66566292 342.32387669 -142 342 Z " fill="#FFFFFF" transform="translate(327,44)"/>
<path d="M0 0 C14.21834877 10.94356873 23.67652555 26.14158701 26.28369141 43.9362793 C27.36218801 52.96533735 27.10833274 62.04838789 27.0625 71.125 C27.05747515 72.86197788 27.05291398 74.59895716 27.04882812 76.3359375 C27.03790014 80.55732688 27.02068978 84.77864764 27 89 C27.92296875 88.96519531 28.8459375 88.93039063 29.796875 88.89453125 C33.9939191 89.0327266 35.81561565 90.32222225 39 93 C41.31817578 97.27088826 41.27196439 101.44599361 41.22705078 106.18676758 C41.22729185 107.01008166 41.22753292 107.83339575 41.2277813 108.68165874 C41.22629331 111.33606105 41.21108427 113.99017945 41.1953125 116.64453125 C41.19237047 118.28755559 41.19033101 119.93058181 41.18920898 121.5736084 C41.17874023 127.65326759 41.15081771 133.73288661 41.125 139.8125 C41.08375 153.404375 41.0425 166.99625 41 181 C-12.13 181 -65.26 181 -120 181 C-120.061875 167.243125 -120.12375 153.48625 -120.1875 139.3125 C-120.21481201 134.97262939 -120.24212402 130.63275879 -120.27026367 126.16137695 C-120.28381348 120.85192871 -120.28381348 120.85192871 -120.28633118 118.36442566 C-120.2909306 116.63128854 -120.30146675 114.89816088 -120.31672668 113.16508484 C-120.33871337 110.53607568 -120.34171715 107.90765189 -120.34057617 105.27856445 C-120.35676766 104.1251366 -120.35676766 104.1251366 -120.37328625 102.94840717 C-120.34714278 98.44282548 -119.77602975 95.58430139 -117 92 C-113.22287846 89.03955339 -110.69838536 88.8768699 -106 89 C-106.01571045 87.80101074 -106.0314209 86.60202148 -106.04760742 85.36669922 C-106.10253966 80.85277211 -106.13657668 76.33887354 -106.16479492 71.82470703 C-106.1797391 69.88324998 -106.20010189 67.94182583 -106.22631836 66.00048828 C-106.53423433 42.58679916 -102.76407655 23.41356517 -86.1875 5.75 C-62.68421835 -16.69747017 -26.24530345 -18.54369019 0 0 Z M-69.375 27.375 C-72.64167105 31.29368805 -75.14346802 35.24838102 -77 40 C-77.34224609 40.82556396 -77.68449219 41.65112793 -78.03710938 42.50170898 C-79.29480195 47.07104897 -79.24905382 51.27691584 -79.1953125 55.9921875 C-79.19329834 56.83144775 -79.19128418 57.67070801 -79.18920898 58.53540039 C-79.1788024 61.64865644 -79.15088007 64.76183413 -79.125 67.875 C-79.08375 74.84625 -79.0425 81.8175 -79 89 C-52.93 89 -26.86 89 0 89 C0.061875 82.626875 0.12375 76.25375 0.1875 69.6875 C0.21481201 67.69936279 0.24212402 65.71122559 0.27026367 63.6628418 C0.38730645 49.20131852 -1.01117297 37.03498295 -10.96875 25.7734375 C-19.03936304 17.96599663 -28.60400523 14.31131162 -39.76953125 13.87109375 C-51.49261262 14.33888297 -61.37662895 18.81585755 -69.375 27.375 Z " fill="#FFFFFF" transform="translate(443,12)"/>
<path d="M0 0 C53.13 0 106.26 0 161 0 C161 23 161 23 158 29 C154.34111949 31.93587952 151.52078776 32.3782071 146.89637756 32.39440918 C145.66970871 32.40575897 144.44303986 32.41710876 143.17919922 32.42880249 C141.8278802 32.42615941 140.47656179 32.42318823 139.12524414 32.41992188 C137.69582964 32.42726482 136.26642108 32.43585171 134.83702087 32.44558716 C130.96095204 32.46778744 127.08509589 32.47073464 123.20897222 32.46883965 C119.97088501 32.46871988 116.73284277 32.47728624 113.49476808 32.48561716 C105.85463579 32.50484558 98.21461275 32.50773698 90.57446289 32.50097656 C82.69731796 32.49433463 74.82064116 32.5172072 66.94359118 32.55429029 C60.17569693 32.5849936 53.40795324 32.5963467 46.63999075 32.59245348 C42.59990328 32.59038675 38.56018018 32.59585312 34.52015877 32.62034607 C30.72045005 32.64262171 26.92150224 32.64072951 23.12178993 32.62041855 C21.72943785 32.61700994 20.33703445 32.6220914 18.94475174 32.63640213 C7.12450484 32.74949035 7.12450484 32.74949035 3.1872406 29.64904785 C-3.91547006 21.04669272 0 12.71174839 0 0 Z " fill="#FFFFFF" transform="translate(323,211)"/>
</svg>
